<?xml version="1.0" encoding="UTF-8"?>
<svg xmlns="http://www.w3.org/2000/svg" xmlns:xlink="http://www.w3.org/1999/xlink" width="193pt" height="193pt" viewBox="0 0 193 193" version="1.1">
<g id="surface1">
<!-- <path style=" stroke:none;fill-rule:evenodd;fill-opacity:1;" d="M 0 0.242188 L 192.757813 0.242188 L 192.757813 193 L 0 193 L 0 0.242188 "/> -->
<path style="fill:#fff; stroke:none;fill-rule:evenodd;fill-opacity:1;" d="M 27.359375 125.335938 C 27.53125 126.894531 26.492188 128.710938 24.851563 129.574219 C 23.726563 130.09375 22.429688 130.441406 21.132813 130.09375 C 18.96875 129.402344 17.414063 127.328125 17.238281 125.078125 C 17.5 124.558594 17.066406 123.605469 17.84375 123.347656 Z M 174.824219 119.542969 C 175.085938 121.703125 174.304688 123.78125 172.402344 124.992188 C 171.277344 125.511719 169.894531 125.941406 168.597656 125.597656 C 166.953125 124.992188 165.050781 123.433594 164.964844 121.617188 L 164.964844 121.183594 C 168.339844 120.839844 171.453125 119.972656 174.824219 119.542969 Z M 127.429688 56.144531 L 131.578125 55.191406 L 131.578125 59.085938 L 127.515625 60.210938 L 127.515625 69.898438 L 123.710938 70.847656 L 123.710938 53.289063 L 127.429688 52.339844 Z M 174.566406 162.785156 L 175.949219 159.15625 L 177.246094 159.15625 L 177.246094 164.085938 L 176.46875 164.085938 L 176.46875 160.105469 L 174.824219 164.085938 L 174.304688 164.085938 L 172.660156 160.105469 L 172.660156 164.085938 L 171.96875 164.085938 L 171.96875 159.15625 L 173.179688 159.15625 Z M 170.933594 159.847656 L 169.375 159.847656 L 169.375 164.085938 L 168.511719 164.085938 L 168.511719 159.847656 L 166.953125 159.847656 L 166.953125 159.15625 L 170.933594 159.15625 Z M 8.503906 168.925781 L 8.503906 24.316406 L 184.253906 24.316406 L 184.253906 168.925781 Z M 101.652344 45.765625 C 95.773438 44.554688 90.84375 47.753906 87.035156 52.078125 C 84.441406 55.191406 83.492188 60.035156 85.132813 63.84375 C 86.429688 66.351563 88.941406 67.820313 91.449219 68.597656 C 97.761719 69.636719 103.46875 66.4375 106.929688 61.160156 C 109.09375 57.875 109.351563 52.597656 106.929688 49.3125 C 105.546875 47.410156 103.644531 46.371094 101.652344 45.765625 Z M 25.109375 157.25 L 33.585938 156.128906 C 33.585938 156.128906 32.636719 155.433594 30.992188 153.445313 C 29.347656 151.371094 28.136719 147.476563 30.125 143.585938 C 32.03125 139.695313 35.230469 137.445313 39.8125 136.753906 L 148.097656 123.953125 L 167.039063 131.046875 L 167.039063 129.054688 C 167.128906 128.363281 167.90625 128.449219 168.339844 128.105469 C 170.585938 127.929688 174.566406 127.414063 174.738281 129.230469 L 174.738281 149.121094 L 182.175781 149.984375 L 182.175781 26.304688 L 161.589844 26.304688 L 163.925781 49.054688 C 163.925781 49.054688 170.847656 116.34375 170.933594 117.207031 C 171.019531 118.332031 170.585938 118.851563 169.636719 119.023438 C 168.683594 119.195313 167.90625 118.9375 167.558594 118.246094 L 163.839844 102.417969 L 147.40625 96.015625 L 130.195313 112.363281 L 130.195313 112.535156 C 134.777344 115.304688 143.949219 121.097656 143.949219 121.097656 L 130.714844 122.828125 L 123.191406 118.675781 L 116.789063 124.558594 C 116.789063 124.558594 107.96875 125.855469 103.558594 126.113281 C 107.363281 122.308594 111.6875 118.332031 115.664063 114.613281 C 109.695313 111.066406 103.644531 107.78125 97.675781 104.320313 C 94.992188 104.753906 92.140625 105.011719 89.632813 105.617188 C 92.660156 105.789063 95.253906 106.914063 97.761719 108.210938 C 101.480469 110.375 105.199219 114.09375 104.507813 118.851563 C 103.988281 121.964844 101.738281 125.078125 98.800781 126.71875 C 89.285156 127.84375 79.773438 129.488281 70.171875 130.09375 C 67.664063 129.144531 64.808594 127.328125 63.769531 124.558594 C 62.128906 119.800781 64.722656 115.390625 68.183594 112.191406 C 65.847656 111.410156 63.339844 110.71875 61.003906 109.855469 L 61.003906 115.648438 L 47.945313 117.898438 L 47.945313 122.742188 L 59.964844 120.839844 L 59.964844 126.632813 L 47.945313 128.363281 L 47.945313 132.773438 L 39.640625 133.8125 L 39.640625 115.390625 L 36.960938 114.351563 L 37.046875 110.71875 L 147.667969 91.433594 L 162.714844 97.488281 L 157.960938 76.816406 C 154.5 75 151.816406 73.875 148.097656 72.316406 L 140.660156 83.90625 L 140.660156 90.308594 L 134.953125 91.433594 L 134.953125 84.601563 L 131.664063 80.882813 C 129.503906 80.363281 126.132813 78.804688 124.140625 78.371094 C 125.523438 78.890625 127.601563 80.621094 128.03125 82.4375 C 128.464844 84.6875 127.339844 86.761719 125.523438 87.972656 C 127.429688 89.269531 131.40625 91.953125 131.40625 91.953125 L 124.660156 93.078125 L 119.210938 89.355469 L 119.210938 94.199219 L 113.847656 95.066406 L 113.847656 83.390625 L 109.4375 81.574219 C 109.4375 81.574219 109.609375 88.839844 109.4375 92.210938 C 109.09375 94.199219 108.398438 95.585938 107.1875 96.277344 L 99.925781 97.574219 C 98.367188 97.488281 97.503906 95.929688 97.070313 93.855469 C 96.636719 90.742188 96.898438 86.675781 96.808594 84.601563 L 94.390625 83.90625 L 94.390625 88.058594 L 90.667969 88.839844 L 90.667969 99.21875 L 86.257813 99.996094 L 86.257813 89.703125 L 82.367188 90.566406 L 82.453125 87.628906 L 80.117188 86.847656 L 80.03125 101.121094 L 75.273438 101.984375 L 69.480469 96.191406 L 69.480469 103.109375 L 65.070313 103.800781 L 65.15625 91.347656 L 61.953125 90.222656 L 61.953125 93.507813 L 56.417969 94.804688 L 56.417969 97.488281 L 61.523438 96.449219 L 61.523438 99.128906 L 56.507813 100.253906 L 56.59375 102.761719 L 62.128906 101.726563 L 62.128906 104.320313 L 52.007813 106.222656 L 52.007813 96.449219 C 50.625 96.015625 49.933594 95.496094 46.214844 94.890625 C 47.945313 95.324219 48.980469 95.757813 49.585938 97.574219 C 48.460938 98.351563 47.597656 98.785156 46.472656 99.5625 C 45.867188 98.785156 44.917969 98.609375 43.878906 98.699219 C 43.015625 99.128906 42.40625 99.734375 41.976563 100.601563 C 41.542969 101.550781 41.714844 102.847656 42.0625 103.800781 C 42.496094 104.839844 43.617188 105.355469 44.742188 105.355469 C 45.953125 105.183594 46.730469 103.800781 47.25 102.9375 C 48.460938 103.367188 49.5 103.886719 50.625 104.40625 C 50.019531 105.789063 49.242188 106.480469 48.203125 106.914063 C 46.039063 107.433594 43.015625 107.953125 40.765625 108.296875 C 39.207031 107.433594 38.171875 105.703125 37.738281 104.058594 C 37.304688 101.464844 37.652344 98.609375 39.8125 96.796875 C 38.777344 96.277344 38.082031 96.015625 36.960938 95.585938 L 36.960938 92.472656 L 123.449219 73.183594 C 131.578125 71.367188 147.925781 67.648438 147.925781 67.648438 L 156.574219 71.453125 L 153.203125 57.097656 C 153.203125 57.097656 147.320313 54.589844 144.726563 53.464844 C 146.195313 54.242188 145.675781 61.9375 145.765625 65.832031 L 141.957031 66.78125 L 141.957031 57.269531 C 141.957031 57.269531 142.21875 56.492188 141.265625 56.058594 C 140.230469 55.625 139.363281 56.664063 138.84375 57.355469 L 138.84375 67.476563 L 134.953125 68.339844 L 134.953125 49.917969 C 127.601563 46.71875 120.25 43.429688 112.8125 40.316406 C 115.40625 42.652344 117.394531 45.507813 118.261719 48.707031 C 120.683594 59.171875 115.234375 68.597656 106.671875 74.652344 L 90.410156 78.460938 C 85.652344 78.371094 81.070313 76.554688 77.867188 72.664063 C 73.890625 67.734375 73.371094 59.433594 75.878906 53.550781 C 74.148438 52.683594 72.332031 51.5625 70.691406 50.953125 C 77.957031 62.546875 64.289063 70.503906 58.324219 79.066406 C 63.164063 77.855469 73.027344 75.777344 73.027344 75.777344 L 72.9375 82.4375 L 40.332031 89.703125 L 40.332031 85.8125 L 53.566406 70.847656 C 56.679688 67.214844 60.226563 63.929688 62.648438 59.949219 C 62.90625 58.738281 62.820313 57.355469 61.609375 56.578125 C 60.484375 55.625 58.582031 55.800781 57.109375 55.972656 C 54.257813 56.835938 51.230469 59.34375 51.144531 62.546875 L 40.503906 64.96875 C 41.542969 57.527344 47.511719 49.484375 54.863281 47.148438 C 63.164063 43.691406 72.417969 50.609375 76.570313 52.253906 L 78.820313 48.445313 C 84.703125 40.230469 93.4375 35.039063 103.816406 36.339844 C 109.695313 37.117188 125.957031 44.988281 135.039063 48.792969 C 135.039063 46.546875 135.039063 41.441406 135.039063 41.441406 L 138.84375 40.75 L 150.605469 46.113281 L 146.195313 26.304688 L 42.753906 26.304688 L 28.222656 103.972656 L 25.109375 120.582031 L 24.503906 121.617188 C 24.074219 122.050781 23.292969 122.222656 22.6875 121.964844 C 22.082031 121.703125 21.390625 121.011719 21.476563 120.234375 L 25.023438 26.046875 L 10.578125 26.046875 L 10.492188 159.5 L 17.757813 158.375 L 17.757813 134.503906 C 17.671875 133.035156 20.09375 132.863281 21.390625 132.773438 C 22.6875 132.6875 25.023438 132.863281 25.109375 134.503906 Z M 138.84375 41.699219 L 138.84375 54.328125 C 138.84375 54.328125 138.671875 53.980469 139.96875 52.773438 C 141.351563 51.648438 141.785156 51.734375 142.910156 51.648438 L 152.941406 56.058594 L 150.78125 47.0625 Z M 148.011719 127.757813 L 60.140625 137.1875 L 167.039063 148.34375 L 167.039063 134.765625 Z M 133.136719 75.949219 L 137.71875 80.96875 L 139.449219 78.285156 Z M 104.765625 84.425781 L 101.308594 83.304688 C 101.308594 83.304688 101.222656 92.125 101.394531 92.902344 C 101.652344 93.679688 102.433594 94.199219 103.296875 94.027344 C 104.074219 93.769531 104.59375 92.988281 104.765625 92.296875 Z M 120.683594 82.4375 C 119.644531 82.523438 119.039063 82.609375 119.039063 82.609375 L 119.039063 85.984375 C 119.039063 85.984375 120.421875 85.898438 121.546875 85.464844 C 122.671875 85.03125 122.671875 84.167969 122.585938 83.648438 C 122.585938 83.214844 122.238281 82.265625 120.683594 82.4375 Z M 69.21875 89.183594 L 75.878906 96.535156 L 75.878906 91.085938 Z M 112.292969 101.550781 L 122.929688 108.039063 L 128.550781 103.023438 Z M 82.796875 112.449219 C 78.648438 113.226563 73.542969 115.042969 72.507813 119.800781 C 72.507813 121.011719 73.285156 121.964844 74.238281 122.570313 C 79.253906 125.335938 86.34375 124.558594 90.929688 121.359375 C 92.574219 120.0625 94.128906 118.246094 93.695313 116.082031 C 91.449219 112.277344 86.863281 112.535156 82.796875 112.449219 Z M 52.355469 138.742188 C 47.683594 138.484375 40.417969 138.484375 36.613281 140.992188 C 33.585938 143.152344 31.769531 146.007813 32.636719 149.8125 C 33.238281 152.0625 35.488281 154.222656 37.566406 155.347656 C 39.292969 156.214844 41.199219 156.820313 43.101563 157.511719 C 31.769531 159.066406 21.910156 160.796875 10.492188 162.179688 L 10.492188 166.9375 L 182.175781 167.023438 L 182.175781 153.101563 L 52.355469 138.742188 "/>
</g>
</svg>
