<svg width="21" height="19" viewBox="0 0 21 19" fill="none" xmlns="http://www.w3.org/2000/svg">
<path d="M19.74 0.216064H1.26C0.925827 0.216064 0.605341 0.351214 0.369045 0.591783C0.13275 0.832352 0 1.15863 0 1.49885V16.8923C0 17.2325 0.13275 17.5588 0.369045 17.7993C0.605341 18.0399 0.925827 18.175 1.26 18.175H19.74C20.0742 18.175 20.3947 18.0399 20.631 17.7993C20.8672 17.5588 21 17.2325 21 16.8923V1.49885C21 1.15863 20.8672 0.832352 20.631 0.591783C20.3947 0.351214 20.0742 0.216064 19.74 0.216064ZM0.84 4.49201H10.08V13.8991H0.84V4.49201ZM10.92 3.63682V1.07125H15.12V3.63682H10.92ZM10.08 3.63682H5.88V1.07125H10.08V3.63682ZM10.08 14.7543V17.3199H5.88V14.7543H10.08ZM10.92 14.7543H15.12V17.3199H10.92V14.7543ZM10.92 13.8991V4.49201H20.16V13.8991H10.92ZM20.16 1.49885V3.63682H15.96V1.07125H19.74C19.8514 1.07125 19.9582 1.1163 20.037 1.19649C20.1157 1.27668 20.16 1.38544 20.16 1.49885ZM1.26 1.07125H5.04V3.63682H0.84V1.49885C0.84 1.38544 0.88425 1.27668 0.963015 1.19649C1.04178 1.1163 1.14861 1.07125 1.26 1.07125ZM0.84 16.8923V14.7543H5.04V17.3199H1.26C1.14861 17.3199 1.04178 17.2748 0.963015 17.1946C0.88425 17.1144 0.84 17.0057 0.84 16.8923ZM19.74 17.3199H15.96V14.7543H20.16V16.8923C20.16 17.0057 20.1157 17.1144 20.037 17.1946C19.9582 17.2748 19.8514 17.3199 19.74 17.3199Z" />
</svg>
