<svg width="21" height="18" viewBox="0 0 21 18" fill="none" xmlns="http://www.w3.org/2000/svg">
<path d="M7 17.9198V16.922H8V15.9243H3C2.20435 15.9243 1.44129 15.609 0.87868 15.0476C0.31607 14.4863 0 13.725 0 12.9311V3.95166C0 3.15782 0.31607 2.3965 0.87868 1.83517C1.44129 1.27385 2.20435 0.958496 3 0.958496H18C18.7956 0.958496 19.5587 1.27385 20.1213 1.83517C20.6839 2.3965 21 3.15782 21 3.95166V12.9311C21 13.725 20.6839 14.4863 20.1213 15.0476C19.5587 15.609 18.7956 15.9243 18 15.9243H13V16.922H14V17.9198H7ZM9 15.9243V16.922H12V15.9243H9ZM3 1.95622C2.46957 1.95622 1.96086 2.16645 1.58579 2.54067C1.21071 2.91489 1 3.42243 1 3.95166V12.9311C1 13.4604 1.21071 13.9679 1.58579 14.3421C1.96086 14.7164 2.46957 14.9266 3 14.9266H18C18.5304 14.9266 19.0391 14.7164 19.4142 14.3421C19.7893 13.9679 20 13.4604 20 12.9311V3.95166C20 3.42243 19.7893 2.91489 19.4142 2.54067C19.0391 2.16645 18.5304 1.95622 18 1.95622H3Z" />
</svg>
